<svg width="20" height="20" viewBox="0 0 20 20" fill="none" xmlns="http://www.w3.org/2000/svg">
<path d="M20 10C20 8.68678 19.7413 7.38642 19.2388 6.17317C18.7362 4.95991 17.9996 3.85752 17.0711 2.92893C16.1425 2.00035 15.0401 1.26375 13.8268 0.761203C12.6136 0.258657 11.3132 -3.79711e-07 9.99999 -4.37114e-07C7.34782 -5.53044e-07 4.80428 1.05357 2.92892 2.92893C1.05355 4.8043 -1.47057e-05 7.34783 -1.48217e-05 10C-1.48791e-05 11.3132 0.258643 12.6136 0.761189 13.8268C1.26374 15.0401 2.00033 16.1425 2.92892 17.0711C4.80428 18.9464 7.34782 20 9.99998 20C12.6521 20 15.1957 18.9464 17.0711 17.0711C18.9464 15.1957 20 12.6522 20 10ZM12 15L6.99999 10L12 5L12 15Z" fill="#858585"/>
</svg>
