<svg width="32" height="32" viewBox="0 0 32 32" fill="none" xmlns="http://www.w3.org/2000/svg">
<path d="M16 30.985C23.9198 30.985 30.34 24.5648 30.34 16.645C30.34 8.72523 23.9198 2.30499 16 2.30499C8.08024 2.30499 1.66 8.72523 1.66 16.645C1.66 24.5648 8.08024 30.985 16 30.985Z" fill="#D68F30"/>
<path d="M2.635 20.37V21.835C2.785 22.2225 2.9525 22.605 3.135 22.975V20.37H2.635ZM4.27 23.1275V24.8875C4.47 25.17 4.6775 25.4475 4.895 25.715V23.1275H4.27ZM6.435 25.4275V27.325C6.6775 27.5425 6.9275 27.75 7.185 27.95V25.4275H6.435ZM9.1 27.175V29.215C9.345 29.35 9.595 29.4775 9.85 29.6V27.175H9.1ZM12.1225 28.2875V30.4475C12.37 30.5175 12.62 30.58 12.8725 30.6375V28.2875H12.1225ZM15.66 28.6725V30.975C15.7725 30.9775 15.885 30.9825 16 30.9825C16.1375 30.9825 16.275 30.975 16.41 30.9725V28.6725H15.66ZM19.1975 28.27V30.62C19.45 30.5625 19.7 30.4975 19.9475 30.4275V28.27H19.1975ZM22.2125 27.1425V29.57C22.4675 29.4475 22.7175 29.315 22.9625 29.1775V27.1425H22.2125ZM24.87 25.38V27.905C25.1273 27.7039 25.3775 27.4938 25.62 27.275V25.38H24.87ZM27.7725 23.0725H27.1475V25.66C27.365 25.39 27.575 25.1125 27.7725 24.8275V23.0725ZM29.3975 20.305H28.8975V22.915C29.08 22.5375 29.2475 22.15 29.3975 21.7575V20.305Z" fill="#BC6F00"/>
<path d="M16 29.695C23.9198 29.695 30.34 23.2748 30.34 15.355C30.34 7.43525 23.9198 1.01501 16 1.01501C8.08024 1.01501 1.66 7.43525 1.66 15.355C1.66 23.2748 8.08024 29.695 16 29.695Z" fill="#FFF176"/>
<path d="M16 28.4175C23.2142 28.4175 29.0625 22.5692 29.0625 15.355C29.0625 8.14076 23.2142 2.29248 16 2.29248C8.78578 2.29248 2.9375 8.14076 2.9375 15.355C2.9375 22.5692 8.78578 28.4175 16 28.4175Z" fill="#F2BC1A"/>
<path d="M2.9125 15.855C2.82 14.135 3.1175 12.39 3.7175 10.755C4.3425 9.12502 5.3 7.61752 6.5075 6.33752C8.9325 3.77252 12.4525 2.28502 16 2.26752C19.5475 2.28752 23.07 3.77252 25.49 6.34002C26.7 7.61752 27.655 9.12752 28.28 10.755C28.8825 12.3925 29.18 14.135 29.085 15.855H29.035C29.0301 14.1392 28.6904 12.4408 28.035 10.855C27.3785 9.27106 26.4198 7.83008 25.2125 6.61252C24.0045 5.39615 22.5689 4.42945 20.9875 3.76752C19.4067 3.10748 17.7106 2.76762 15.9975 2.76762C14.2844 2.76762 12.5883 3.10748 11.0075 3.76752C9.42614 4.42945 7.99052 5.39615 6.7825 6.61252C5.57441 7.82942 4.61562 9.27056 3.96 10.855C3.3046 12.4408 2.96492 14.1392 2.96 15.855H2.9125Z" fill="#E08F00"/>
<path d="M16 1.01752C8.08 1.01752 1.66 7.43752 1.66 15.3575C1.66 23.2775 8.08 29.6975 16 29.6975C23.92 29.6975 30.34 23.2775 30.34 15.3575C30.34 7.43752 23.92 1.01752 16 1.01752ZM16 28.42C8.785 28.42 2.9375 22.5725 2.9375 15.3575C2.9375 8.14002 8.785 2.29252 16 2.29252C23.215 2.29252 29.0625 8.14002 29.0625 15.355C29.0625 22.57 23.215 28.42 16 28.42Z" fill="#FFF176"/>
<path d="M9.4975 5.33752L9.815 6.32002L10.85 5.92502V6.32002L10.0125 6.92752L10.3325 7.51252V7.91002L9.4975 7.30252L8.66 7.91002V7.51252L8.98 6.92752L8.145 6.32002V5.92502L9.1775 6.32002L9.4975 5.33752ZM5.5025 10.9775L5.8225 11.96L6.855 11.565V11.96L6.02 12.5675L6.34 13.155V13.55L5.5025 12.9425L4.6675 13.55V13.155L4.9875 12.5675L4.15 11.96V11.565L5.185 11.96L5.5025 10.9775ZM5.385 17.93L5.705 18.9125L6.7375 18.5175V18.9125L5.9025 19.52L6.2225 20.1075V20.5025L5.385 19.895L4.55 20.5025V20.1075L4.87 19.52L4.0325 18.9125V18.5175L5.0675 18.9125L5.385 17.93ZM9.65 23.45L9.97 24.4325L11.0025 24.0375V24.4325L10.1675 25.04L10.4875 25.625V26.0225L9.65 25.415L8.815 26.0225V25.625L9.135 25.04L8.2975 24.4325V24.0375L9.3325 24.4325L9.65 23.45ZM22.5025 5.33752L22.185 6.32002L21.15 5.92502V6.32002L21.9875 6.92752L21.6675 7.51252V7.91002L22.5025 7.30252L23.34 7.91002V7.51252L23.02 6.92752L23.855 6.32002V5.92502L22.8225 6.32002L22.5025 5.33752ZM26.4975 10.9775L26.1775 11.96L25.145 11.565V11.96L25.98 12.5675L25.66 13.155V13.55L26.4975 12.9425L27.3325 13.55V13.155L27.0125 12.5675L27.85 11.96V11.565L26.815 11.96L26.4975 10.9775ZM26.615 17.93L26.295 18.9125L25.2625 18.5175V18.9125L26.0975 19.52L25.7775 20.1075V20.5025L26.615 19.895L27.45 20.5025V20.1075L27.13 19.52L27.9675 18.9125V18.5175L26.9325 18.9125L26.615 17.93ZM22.35 23.45L22.03 24.4325L20.9975 24.0375V24.4325L21.8325 25.04L21.5125 25.625V26.0225L22.35 25.415L23.185 26.0225V25.625L22.865 25.04L23.7025 24.4325V24.0375L22.6675 24.4325L22.35 23.45Z" fill="#D38200"/>
<path d="M22.35 23.0525L22.6675 24.035H23.7025L22.865 24.6425L23.185 25.625L22.35 25.0175L21.5125 25.625L21.8325 24.6425L20.9975 24.035H22.03L22.35 23.0525ZM26.615 17.535L26.9325 18.5175H27.9675L27.13 19.125L27.45 20.1075L26.615 19.5L25.7775 20.1075L26.0975 19.125L25.2625 18.5175H26.295L26.615 17.535ZM26.4975 10.5825L26.815 11.565H27.85L27.0125 12.1725L27.3325 13.155L26.4975 12.5475L25.66 13.155L25.98 12.1725L25.145 11.565H26.1775L26.4975 10.5825ZM22.5025 4.94L22.8225 5.9225H23.855L23.02 6.53L23.34 7.5125L22.5025 6.905L21.6675 7.5125L21.9875 6.53L21.15 5.9225H22.185L22.5025 4.94Z" fill="#FFF176"/>
<path d="M16.0125 25.625L16.3325 26.6075L17.365 26.2125V26.6075L16.53 27.215L16.85 27.8025V28.1975L16.0125 27.59L15.1775 28.1975V27.8025L15.4975 27.215L14.66 26.6075V26.2125L15.695 26.6075L16.0125 25.625Z" fill="#D38200"/>
<path d="M16.0125 25.1L16.3325 26.0825H17.365L16.53 26.69L16.85 27.6725L16.0125 27.065L15.1775 27.6725L15.4975 26.69L14.66 26.0825H15.695L16.0125 25.1Z" fill="#FFF176"/>
<path d="M16.0125 3.22247L16.3325 4.20497L17.365 3.80997V4.20497L16.53 4.81247L16.85 5.39997V5.79497L16.0125 5.18747L15.1775 5.79497V5.39997L15.4975 4.81247L14.66 4.20497V3.80997L15.695 4.20497L16.0125 3.22247Z" fill="#D38200"/>
<path d="M16.0125 2.82751L16.3325 3.81001H17.365L16.53 4.41751L16.85 5.40001L16.0125 4.79251L15.1775 5.40001L15.4975 4.41751L14.66 3.81001H15.695L16.0125 2.82751ZM9.65 23.0525L9.3325 24.035H8.2975L9.135 24.6425L8.815 25.625L9.65 25.0175L10.4875 25.625L10.1675 24.6425L11.0025 24.035H9.97L9.65 23.0525ZM5.385 17.535L5.0675 18.5175H4.0325L4.87 19.125L4.55 20.1075L5.385 19.5L6.2225 20.1075L5.9025 19.125L6.7375 18.5175H5.705L5.385 17.535ZM5.5025 10.5825L5.185 11.565H4.15L4.9875 12.1725L4.6675 13.155L5.5025 12.5475L6.34 13.155L6.02 12.1725L6.855 11.565H5.8225L5.5025 10.5825ZM9.4975 4.94001L9.1775 5.92251H8.145L8.98 6.53001L8.66 7.51251L9.4975 6.90501L10.3325 7.51251L10.0125 6.53001L10.85 5.92251H9.815L9.4975 4.94001Z" fill="#FFF176"/>
<path d="M23.805 12.05C23.805 11.9625 8.21 12.05 8.21 12.05L8.07 12.47V13.1875C8.07 13.3175 8.175 13.4225 8.305 13.4225H23.695C23.825 13.4225 23.93 13.3175 23.93 13.1875V12.49L23.805 12.05ZM23.8275 21.375H8.275L7.235 21.8975L7.2475 22.57C7.25 22.6425 7.31 22.7025 7.385 22.7025H24.6175C24.69 22.7025 24.7525 22.645 24.755 22.57L24.7675 21.91L23.8275 21.375Z" fill="#D38200"/>
<path d="M10.7825 19.33H9.8875C9.74 19.33 9.62 18.865 9.62 18.7175L11.0475 18.6725C11.0475 18.82 10.9275 19.33 10.7825 19.33ZM11.0875 14.5025H9.58C9.4675 14.5025 9.37 14.4275 9.3375 14.32L9.22 13.3375H11.4275L11.3275 14.32C11.2975 14.4275 11.2 14.5025 11.0875 14.5025ZM9.58 19.6275H11.0875C11.2 19.6275 11.4225 19.6975 11.4525 19.805C11.4525 19.805 11.445 20.2725 11.445 20.4575C11.445 20.6425 11.37 20.7775 11.2025 20.7775H9.465C9.2975 20.7775 9.2225 20.6275 9.2225 20.4575C9.2225 20.2875 9.215 19.81 9.215 19.81C9.2475 19.7025 9.4675 19.6275 9.58 19.6275ZM22.4075 19.33H21.5125C21.365 19.33 21.245 18.865 21.245 18.7175L22.6725 18.6725C22.6725 18.82 22.555 19.33 22.4075 19.33ZM22.7125 14.5025H21.205C21.0925 14.5025 20.995 14.4275 20.9625 14.32L20.845 13.3375H23.0525L22.9525 14.32C22.9225 14.4275 22.825 14.5025 22.7125 14.5025ZM21.205 19.6275H22.7125C22.825 19.6275 23.0475 19.6975 23.0775 19.805C23.0775 19.805 23.07 20.2725 23.07 20.4575C23.07 20.6425 22.995 20.7775 22.8275 20.7775H21.09C20.9225 20.7775 20.8475 20.6275 20.8475 20.4575C20.8475 20.2875 20.84 19.81 20.84 19.81C20.8725 19.7025 21.0925 19.6275 21.205 19.6275ZM18.5325 19.33H17.6375C17.49 19.33 17.37 18.865 17.37 18.7175L18.7975 18.6725C18.7975 18.82 18.68 19.33 18.5325 19.33ZM18.8375 14.5025H17.33C17.2175 14.5025 17.12 14.4275 17.0875 14.32L16.97 13.3375H19.1775L19.0775 14.32C19.0475 14.4275 18.95 14.5025 18.8375 14.5025ZM17.33 19.6275H18.8375C18.95 19.6275 19.1725 19.6975 19.2025 19.805C19.2025 19.805 19.195 20.2725 19.195 20.4575C19.195 20.6425 19.12 20.7775 18.9525 20.7775H17.215C17.0475 20.7775 16.9725 20.6275 16.9725 20.4575C16.9725 20.2875 16.965 19.81 16.965 19.81C16.9975 19.7025 17.2175 19.6275 17.33 19.6275ZM14.6575 19.33H13.7625C13.615 19.33 13.495 18.865 13.495 18.7175L14.9225 18.6725C14.9225 18.82 14.805 19.33 14.6575 19.33ZM14.9625 14.5025H13.455C13.3425 14.5025 13.245 14.4275 13.2125 14.32L13.095 13.3375H15.3025L15.2025 14.32C15.1725 14.4275 15.075 14.5025 14.9625 14.5025ZM13.455 19.6275H14.9625C15.075 19.6275 15.2975 19.6975 15.3275 19.805C15.3275 19.805 15.32 20.2725 15.32 20.4575C15.32 20.6425 15.245 20.7775 15.0775 20.7775H13.34C13.1725 20.7775 13.0975 20.6275 13.0975 20.4575C13.0975 20.2875 13.09 19.81 13.09 19.81C13.1225 19.7025 13.3425 19.6275 13.455 19.6275Z" fill="#D38200"/>
<path d="M23.9175 11.38C23.9175 11.2925 23.8725 11.21 23.805 11.17L16.01 6.745L8.205 11.165C8.13 11.21 8.0825 11.2925 8.0825 11.38L8.07 12.4725C8.07 12.61 8.1825 12.7225 8.32 12.7225H23.6775C23.815 12.7225 23.9275 12.61 23.9275 12.4725L23.9175 11.38Z" fill="#FFF176"/>
<path d="M21.96 11.0825L16 7.70001L10.04 11.0825H21.96Z" fill="#F2BC1A"/>
<path d="M19.7675 10.67L16 8.53003L12.2325 10.67H19.7675ZM23.3475 20.505H8.6525C8.5075 20.505 8.37 20.5675 8.2725 20.675L7.2625 21.8025C7.1925 21.88 7.2475 22.0025 7.3525 22.0025H24.6475C24.75 22.0025 24.805 21.88 24.7375 21.8025L23.725 20.675C23.63 20.5675 23.49 20.505 23.3475 20.505ZM22.4075 18.8775H21.5125C21.365 18.8775 21.245 18.7575 21.245 18.61V14.615C21.245 14.4675 21.365 14.3475 21.5125 14.3475H22.4075C22.555 14.3475 22.675 14.4675 22.675 14.615V18.6125C22.675 18.76 22.555 18.8775 22.4075 18.8775ZM22.715 14.05H21.2075C21.095 14.05 20.9975 13.975 20.965 13.8675L20.85 13.47C20.8025 13.31 20.925 13.15 21.0925 13.15H22.83C22.9975 13.15 23.1175 13.31 23.0725 13.47L22.9575 13.8675C22.925 13.975 22.825 14.05 22.715 14.05ZM21.205 19.1775H22.7125C22.825 19.1775 22.9225 19.2525 22.955 19.36L23.07 19.7575C23.1175 19.9175 22.995 20.0775 22.8275 20.0775H21.09C20.9225 20.0775 20.8025 19.9175 20.8475 19.7575L20.9625 19.36C20.995 19.25 21.095 19.1775 21.205 19.1775ZM10.7825 18.8775H9.8875C9.74 18.8775 9.62 18.7575 9.62 18.61V14.615C9.62 14.4675 9.74 14.3475 9.8875 14.3475H10.7825C10.93 14.3475 11.05 14.4675 11.05 14.615V18.6125C11.0475 18.76 10.9275 18.8775 10.7825 18.8775ZM11.0875 14.05H9.58C9.4675 14.05 9.37 13.975 9.3375 13.8675L9.2225 13.47C9.175 13.31 9.2975 13.15 9.465 13.15H11.2025C11.37 13.15 11.49 13.31 11.445 13.47L11.33 13.8675C11.2975 13.975 11.2 14.05 11.0875 14.05ZM9.58 19.1775H11.0875C11.2 19.1775 11.2975 19.2525 11.33 19.36L11.445 19.7575C11.4925 19.9175 11.37 20.0775 11.2025 20.0775H9.465C9.2975 20.0775 9.1775 19.9175 9.2225 19.7575L9.3375 19.36C9.37 19.25 9.4675 19.1775 9.58 19.1775ZM14.6575 18.8775H13.7625C13.615 18.8775 13.495 18.7575 13.495 18.61V14.615C13.495 14.4675 13.615 14.3475 13.7625 14.3475H14.6575C14.805 14.3475 14.925 14.4675 14.925 14.615V18.6125C14.9243 18.683 14.8959 18.7504 14.8458 18.8001C14.7957 18.8497 14.728 18.8775 14.6575 18.8775ZM14.9625 14.05H13.455C13.3425 14.05 13.245 13.975 13.2125 13.8675L13.0975 13.47C13.05 13.31 13.1725 13.15 13.34 13.15H15.0775C15.245 13.15 15.365 13.31 15.32 13.47L15.205 13.8675C15.1725 13.975 15.075 14.05 14.9625 14.05ZM13.455 19.1775H14.9625C15.075 19.1775 15.1725 19.2525 15.205 19.36L15.32 19.7575C15.3675 19.9175 15.245 20.0775 15.0775 20.0775H13.34C13.1725 20.0775 13.0525 19.9175 13.0975 19.7575L13.2125 19.36C13.245 19.25 13.3425 19.1775 13.455 19.1775ZM18.5325 18.8775H17.6375C17.49 18.8775 17.37 18.7575 17.37 18.61V14.615C17.37 14.4675 17.49 14.3475 17.6375 14.3475H18.5325C18.68 14.3475 18.8 14.4675 18.8 14.615V18.6125C18.7993 18.683 18.7709 18.7504 18.7208 18.8001C18.6707 18.8497 18.603 18.8775 18.5325 18.8775ZM18.8375 14.05H17.33C17.2175 14.05 17.12 13.975 17.0875 13.8675L16.9725 13.47C16.925 13.31 17.0475 13.15 17.215 13.15H18.9525C19.12 13.15 19.24 13.31 19.195 13.47L19.08 13.8675C19.0475 13.975 18.95 14.05 18.8375 14.05ZM17.33 19.1775H18.8375C18.95 19.1775 19.0475 19.2525 19.08 19.36L19.195 19.7575C19.2425 19.9175 19.12 20.0775 18.9525 20.0775H17.215C17.0475 20.0775 16.9275 19.9175 16.9725 19.7575L17.0875 19.36C17.12 19.25 17.22 19.1775 17.33 19.1775Z" fill="#FFF176"/>
</svg>
