<svg width="30" height="33" viewBox="0 0 30 33" fill="none" xmlns="http://www.w3.org/2000/svg">
<path d="M4.00001 32.5C2.99168 32.5 2.12818 32.1407 1.40951 31.422C0.690846 30.7034 0.332124 29.8405 0.333347 28.8334V12.3334C0.333347 11.7528 0.463513 11.2028 0.723846 10.6834C0.98418 10.1639 1.3429 9.73613 1.80001 9.40002L12.8 1.15002C13.1361 0.905576 13.4875 0.722242 13.8542 0.60002C14.2208 0.477798 14.6028 0.416687 15 0.416687C15.3972 0.416687 15.7792 0.477798 16.1458 0.60002C16.5125 0.722242 16.8639 0.905576 17.2 1.15002L28.2 9.40002C28.6583 9.73613 29.0177 10.1639 29.278 10.6834C29.5383 11.2028 29.6679 11.7528 29.6667 12.3334V28.8334C29.6667 29.8417 29.3073 30.7052 28.5887 31.4239C27.87 32.1425 27.0071 32.5012 26 32.5H18.6667V19.6667H11.3333V32.5H4.00001Z" fill="white"/>
</svg>
