<svg width="19" height="14" viewBox="0 0 19 14" fill="none" xmlns="http://www.w3.org/2000/svg">
<path d="M9.525 13.025C9.19167 13.2417 8.85433 13.2543 8.513 13.063C8.17167 12.8717 8.00067 12.5757 8 12.175V1.825C8 1.425 8.171 1.129 8.513 0.936997C8.855 0.744997 9.19233 0.757667 9.525 0.974997L17.675 6.15C17.975 6.35 18.125 6.6333 18.125 7C18.125 7.3667 17.975 7.65 17.675 7.85L9.525 13.025Z" fill="white"/>
<path d="M1.525 13.025C1.19167 13.2417 0.854333 13.2543 0.513 13.063C0.171666 12.8717 0.000666667 12.5757 0 12.175V1.825C0 1.425 0.171 1.129 0.513 0.936997C0.855 0.744997 1.19233 0.757667 1.525 0.974997L9.675 6.15C9.975 6.35 10.125 6.6333 10.125 7C10.125 7.3667 9.975 7.65 9.675 7.85L1.525 13.025Z" fill="white"/>
</svg>
